{
  "asset": {
    "generator": "Khronos glTF Blender I/O v1.6.16",
    "version": "2.0"
  },
  "scene": 0,
  "scenes": [
    {
      "name": "Scene",
      "nodes": [
        0
      ]
    }
  ],
  "nodes": [
    {
      "mesh": 0,
      "name": "Bst",
      "translation": [
        -0.003633067011833191,
        0.7021679878234863,
        0.014555752277374268
      ]
    }
  ],
  "materials": [
    {
      "doubleSided": true,
      "name": "1",
      "normalTexture": {
        "index": 0
      },
      "pbrMetallicRoughness": {
        "baseColorTexture": {
          "index": 1
        },
        "metallicRoughnessTexture": {
          "index": 2
        }
      }
    },
    {
      "doubleSided": true,
      "name": "2",
      "normalTexture": {
        "index": 3
      },
      "pbrMetallicRoughness": {
        "baseColorTexture": {
          "index": 4
        },
        "metallicRoughnessTexture": {
          "index": 5
        }
      }
    },
    {
      "doubleSided": true,
      "name": "3",
      "normalTexture": {
        "index": 6
      },
      "pbrMetallicRoughness": {
        "baseColorTexture": {
          "index": 7
        },
        "metallicRoughnessTexture": {
          "index": 8
        }
      }
    },
    {
      "doubleSided": true,
      "name": "4",
      "normalTexture": {
        "index": 9
      },
      "pbrMetallicRoughness": {
        "baseColorTexture": {
          "index": 10
        },
        "metallicRoughnessTexture": {
          "index": 11
        }
      }
    },
    {
      "doubleSided": true,
      "name": "5",
      "normalTexture": {
        "index": 12
      },
      "pbrMetallicRoughness": {
        "baseColorTexture": {
          "index": 13
        },
        "metallicRoughnessTexture": {
          "index": 14
        }
      }
    },
    {
      "doubleSided": true,
      "name": "6",
      "normalTexture": {
        "index": 15
      },
      "pbrMetallicRoughness": {
        "baseColorTexture": {
          "index": 16
        },
        "metallicRoughnessTexture": {
          "index": 17
        }
      }
    },
    {
      "doubleSided": true,
      "name": "7",
      "normalTexture": {
        "index": 18
      },
      "pbrMetallicRoughness": {
        "baseColorTexture": {
          "index": 19
        },
        "metallicRoughnessTexture": {
          "index": 20
        }
      }
    },
    {
      "doubleSided": true,
      "name": "8",
      "normalTexture": {
        "index": 21
      },
      "pbrMetallicRoughness": {
        "baseColorTexture": {
          "index": 22
        },
        "metallicRoughnessTexture": {
          "index": 23
        }
      }
    },
    {
      "doubleSided": true,
      "name": "9",
      "normalTexture": {
        "index": 24
      },
      "pbrMetallicRoughness": {
        "baseColorTexture": {
          "index": 25
        },
        "metallicRoughnessTexture": {
          "index": 26
        }
      }
    }
  ],
  "meshes": [
    {
      "name": "DemoSoldier1.001",
      "primitives": [
        {
          "attributes": {
            "POSITION": 0,
            "NORMAL": 1,
            "TEXCOORD_0": 2
          },
          "indices": 3,
          "material": 0
        },
        {
          "attributes": {
            "POSITION": 4,
            "NORMAL": 5,
            "TEXCOORD_0": 6
          },
          "indices": 7,
          "material": 1
        },
        {
          "attributes": {
            "POSITION": 8,
            "NORMAL": 9,
            "TEXCOORD_0": 10
          },
          "indices": 11,
          "material": 2
        },
        {
          "attributes": {
            "POSITION": 12,
            "NORMAL": 13,
            "TEXCOORD_0": 14
          },
          "indices": 15,
          "material": 3
        },
        {
          "attributes": {
            "POSITION": 16,
            "NORMAL": 17,
            "TEXCOORD_0": 18
          },
          "indices": 19,
          "material": 4
        },
        {
          "attributes": {
            "POSITION": 20,
            "NORMAL": 21,
            "TEXCOORD_0": 22
          },
          "indices": 23,
          "material": 5
        },
        {
          "attributes": {
            "POSITION": 24,
            "NORMAL": 25,
            "TEXCOORD_0": 26
          },
          "indices": 27,
          "material": 6
        },
        {
          "attributes": {
            "POSITION": 28,
            "NORMAL": 29,
            "TEXCOORD_0": 30
          },
          "indices": 31,
          "material": 7
        },
        {
          "attributes": {
            "POSITION": 32,
            "NORMAL": 33,
            "TEXCOORD_0": 34
          },
          "indices": 35,
          "material": 8
        }
      ]
    }
  ],
  "textures": [
    {
      "sampler": 0,
      "source": 0
    },
    {
      "sampler": 0,
      "source": 1
    },
    {
      "sampler": 0,
      "source": 2
    },
    {
      "sampler": 0,
      "source": 3
    },
    {
      "sampler": 0,
      "source": 4
    },
    {
      "sampler": 0,
      "source": 5
    },
    {
      "sampler": 0,
      "source": 6
    },
    {
      "sampler": 0,
      "source": 7
    },
    {
      "sampler": 0,
      "source": 8
    },
    {
      "sampler": 0,
      "source": 9
    },
    {
      "sampler": 0,
      "source": 10
    },
    {
      "sampler": 0,
      "source": 11
    },
    {
      "sampler": 0,
      "source": 12
    },
    {
      "sampler": 0,
      "source": 13
    },
    {
      "sampler": 0,
      "source": 14
    },
    {
      "sampler": 0,
      "source": 15
    },
    {
      "sampler": 0,
      "source": 16
    },
    {
      "sampler": 0,
      "source": 17
    },
    {
      "sampler": 0,
      "source": 18
    },
    {
      "sampler": 0,
      "source": 19
    },
    {
      "sampler": 0,
      "source": 20
    },
    {
      "sampler": 0,
      "source": 21
    },
    {
      "sampler": 0,
      "source": 22
    },
    {
      "sampler": 0,
      "source": 23
    },
    {
      "sampler": 0,
      "source": 24
    },
    {
      "sampler": 0,
      "source": 25
    },
    {
      "sampler": 0,
      "source": 26
    }
  ],
  "images": [
    {
      "name": "Busto injoinato texturizzare_1_Normal.png",
      "uri": "Busto_img0.png"
    },
    {
      "name": "Busto injoinato texturizzare_1_BaseColor.png",
      "uri": "Busto_img1.png"
    },
    {
      "name": "Busto injoinato texturizzare_1_Metallic.png-Busto injoinato texturizzare_1_Roughness.png",
      "uri": "Busto_img2.png"
    },
    {
      "name": "Busto injoinato texturizzare_2_Normal.png",
      "uri": "Busto_img3.png"
    },
    {
      "name": "Busto injoinato texturizzare_2_BaseColor.png",
      "uri": "Busto_img4.png"
    },
    {
      "name": "Busto injoinato texturizzare_2_Metallic.png-Busto injoinato texturizzare_2_Roughness.png",
      "uri": "Busto_img5.png"
    },
    {
      "name": "Busto injoinato texturizzare_3_Normal.png",
      "uri": "Busto_img6.png"
    },
    {
      "name": "Busto injoinato texturizzare_3_BaseColor.png",
      "uri": "Busto_img7.png"
    },
    {
      "name": "Busto injoinato texturizzare_3_Metallic.png-Busto injoinato texturizzare_3_Roughness.png",
      "uri": "Busto_img8.png"
    },
    {
      "name": "Busto injoinato texturizzare_4_Normal.png",
      "uri": "Busto_img9.png"
    },
    {
      "name": "Busto injoinato texturizzare_4_BaseColor.png",
      "uri": "Busto_img10.png"
    },
    {
      "name": "Busto injoinato texturizzare_4_Metallic.png-Busto injoinato texturizzare_4_Roughness.png",
      "uri": "Busto_img11.png"
    },
    {
      "name": "Busto injoinato texturizzare_5_Normal.png",
      "uri": "Busto_img12.png"
    },
    {
      "name": "Busto injoinato texturizzare_5_BaseColor.png",
      "uri": "Busto_img13.png"
    },
    {
      "name": "Busto injoinato texturizzare_5_Metallic.png-Busto injoinato texturizzare_5_Roughness.png",
      "uri": "Busto_img14.png"
    },
    {
      "name": "Busto injoinato texturizzare_6_Normal.png",
      "uri": "Busto_img15.png"
    },
    {
      "name": "Busto injoinato texturizzare_6_BaseColor.png",
      "uri": "Busto_img16.png"
    },
    {
      "name": "Busto injoinato texturizzare_6_Metallic.png-Busto injoinato texturizzare_6_Roughness.png",
      "uri": "Busto_img17.png"
    },
    {
      "name": "Busto injoinato texturizzare_7_Normal.png",
      "uri": "Busto_img18.png"
    },
    {
      "name": "Busto injoinato texturizzare_7_BaseColor.png",
      "uri": "Busto_img19.png"
    },
    {
      "name": "Busto injoinato texturizzare_7_Metallic.png-Busto injoinato texturizzare_7_Roughness.png",
      "uri": "Busto_img20.png"
    },
    {
      "name": "Busto injoinato texturizzare_8_Normal.png",
      "uri": "Busto_img21.png"
    },
    {
      "name": "Busto injoinato texturizzare_8_BaseColor.png",
      "uri": "Busto_img22.png"
    },
    {
      "name": "Busto injoinato texturizzare_8_Metallic.png-Busto injoinato texturizzare_8_Roughness.png",
      "uri": "Busto_img23.png"
    },
    {
      "name": "Busto injoinato texturizzare_9_Normal.png",
      "uri": "Busto_img24.png"
    },
    {
      "name": "Busto injoinato texturizzare_9_BaseColor.png",
      "uri": "Busto_img25.png"
    },
    {
      "name": "Busto injoinato texturizzare_9_Metallic.png-Busto injoinato texturizzare_9_Roughness.png",
      "uri": "Busto_img26.png"
    }
  ],
  "accessors": [
    {
      "bufferView": 0,
      "componentType": 5126,
      "count": 7098,
      "max": [
        0.1255195140838623,
        0.48038578033447266,
        0.0871078372001648
      ],
      "min": [
        -0.18154701590538025,
        0.41046732664108276,
        0.045578353106975555
      ],
      "type": "VEC3"
    },
    {
      "bufferView": 1,
      "componentType": 5126,
      "count": 7098,
      "type": "VEC3"
    },
    {
      "bufferView": 2,
      "componentType": 5126,
      "count": 7098,
      "type": "VEC2"
    },
    {
      "bufferView": 3,
      "componentType": 5123,
      "count": 35508,
      "type": "SCALAR"
    },
    {
      "bufferView": 4,
      "componentType": 5126,
      "count": 1232,
      "max": [
        0.11386942863464355,
        0.4472934603691101,
        0.07820260524749756
      ],
      "min": [
        -0.1769295036792755,
        0.4167700707912445,
        0.05016453191637993
      ],
      "type": "VEC3"
    },
    {
      "bufferView": 5,
      "componentType": 5126,
      "count": 1232,
      "type": "VEC3"
    },
    {
      "bufferView": 6,
      "componentType": 5126,
      "count": 1232,
      "type": "VEC2"
    },
    {
      "bufferView": 7,
      "componentType": 5123,
      "count": 5952,
      "type": "SCALAR"
    },
    {
      "bufferView": 8,
      "componentType": 5126,
      "count": 47509,
      "max": [
        0.3092293441295624,
        0.47126564383506775,
        0.15216101706027985
      ],
      "min": [
        -0.3460274040699005,
        -0.5484915971755981,
        -0.2777331471443176
      ],
      "type": "VEC3"
    },
    {
      "bufferView": 9,
      "componentType": 5126,
      "count": 47509,
      "type": "VEC3"
    },
    {
      "bufferView": 10,
      "componentType": 5126,
      "count": 47509,
      "type": "VEC2"
    },
    {
      "bufferView": 11,
      "componentType": 5123,
      "count": 267084,
      "type": "SCALAR"
    },
    {
      "bufferView": 12,
      "componentType": 5126,
      "count": 2409,
      "max": [
        0.16374118626117706,
        0.161794513463974,
        0.14166077971458435
      ],
      "min": [
        -0.24700257182121277,
        -0.4177206754684448,
        0.05434224009513855
      ],
      "type": "VEC3"
    },
    {
      "bufferView": 13,
      "componentType": 5126,
      "count": 2409,
      "type": "VEC3"
    },
    {
      "bufferView": 14,
      "componentType": 5126,
      "count": 2409,
      "type": "VEC2"
    },
    {
      "bufferView": 15,
      "componentType": 5123,
      "count": 13056,
      "type": "SCALAR"
    },
    {
      "bufferView": 16,
      "componentType": 5126,
      "count": 3932,
      "max": [
        0.093002550303936,
        0.13410668075084686,
        0.16077908873558044
      ],
      "min": [
        0.017866035923361778,
        -0.31913647055625916,
        0.12740972638130188
      ],
      "type": "VEC3"
    },
    {
      "bufferView": 17,
      "componentType": 5126,
      "count": 3932,
      "type": "VEC3"
    },
    {
      "bufferView": 18,
      "componentType": 5126,
      "count": 3932,
      "type": "VEC2"
    },
    {
      "bufferView": 19,
      "componentType": 5123,
      "count": 15600,
      "type": "SCALAR"
    },
    {
      "bufferView": 20,
      "componentType": 5126,
      "count": 3667,
      "max": [
        0.13585864007472992,
        0.11903377622365952,
        0.14513997733592987
      ],
      "min": [
        -0.20077410340309143,
        -0.306732714176178,
        0.10062611848115921
      ],
      "type": "VEC3"
    },
    {
      "bufferView": 21,
      "componentType": 5126,
      "count": 3667,
      "type": "VEC3"
    },
    {
      "bufferView": 22,
      "componentType": 5126,
      "count": 3667,
      "type": "VEC2"
    },
    {
      "bufferView": 23,
      "componentType": 5123,
      "count": 14592,
      "type": "SCALAR"
    },
    {
      "bufferView": 24,
      "componentType": 5126,
      "count": 1680,
      "max": [
        0.045962996780872345,
        0.1260366290807724,
        0.16062010824680328
      ],
      "min": [
        -0.21385341882705688,
        -0.3466314673423767,
        0.08822304010391235
      ],
      "type": "VEC3"
    },
    {
      "bufferView": 25,
      "componentType": 5126,
      "count": 1680,
      "type": "VEC3"
    },
    {
      "bufferView": 26,
      "componentType": 5126,
      "count": 1680,
      "type": "VEC2"
    },
    {
      "bufferView": 27,
      "componentType": 5123,
      "count": 5664,
      "type": "SCALAR"
    },
    {
      "bufferView": 28,
      "componentType": 5126,
      "count": 11764,
      "max": [
        0.1409127116203308,
        0.13020463287830353,
        0.1475614756345749
      ],
      "min": [
        0.0717768594622612,
        -0.3163719177246094,
        0.10958265513181686
      ],
      "type": "VEC3"
    },
    {
      "bufferView": 29,
      "componentType": 5126,
      "count": 11764,
      "type": "VEC3"
    },
    {
      "bufferView": 30,
      "componentType": 5126,
      "count": 11764,
      "type": "VEC2"
    },
    {
      "bufferView": 31,
      "componentType": 5123,
      "count": 61368,
      "type": "SCALAR"
    },
    {
      "bufferView": 32,
      "componentType": 5126,
      "count": 3377,
      "max": [
        0.24181309342384338,
        0.3031405806541443,
        -0.07491510361433029
      ],
      "min": [
        -0.329961359500885,
        -0.07989651709794998,
        -0.24697299301624298
      ],
      "type": "VEC3"
    },
    {
      "bufferView": 33,
      "componentType": 5126,
      "count": 3377,
      "type": "VEC3"
    },
    {
      "bufferView": 34,
      "componentType": 5126,
      "count": 3377,
      "type": "VEC2"
    },
    {
      "bufferView": 35,
      "componentType": 5123,
      "count": 17214,
      "type": "SCALAR"
    }
  ],
  "bufferViews": [
    {
      "buffer": 0,
      "byteLength": 85176,
      "byteOffset": 0
    },
    {
      "buffer": 0,
      "byteLength": 85176,
      "byteOffset": 85176
    },
    {
      "buffer": 0,
      "byteLength": 56784,
      "byteOffset": 170352
    },
    {
      "buffer": 0,
      "byteLength": 71016,
      "byteOffset": 227136
    },
    {
      "buffer": 0,
      "byteLength": 14784,
      "byteOffset": 298152
    },
    {
      "buffer": 0,
      "byteLength": 14784,
      "byteOffset": 312936
    },
    {
      "buffer": 0,
      "byteLength": 9856,
      "byteOffset": 327720
    },
    {
      "buffer": 0,
      "byteLength": 11904,
      "byteOffset": 337576
    },
    {
      "buffer": 0,
      "byteLength": 570108,
      "byteOffset": 349480
    },
    {
      "buffer": 0,
      "byteLength": 570108,
      "byteOffset": 919588
    },
    {
      "buffer": 0,
      "byteLength": 380072,
      "byteOffset": 1489696
    },
    {
      "buffer": 0,
      "byteLength": 534168,
      "byteOffset": 1869768
    },
    {
      "buffer": 0,
      "byteLength": 28908,
      "byteOffset": 2403936
    },
    {
      "buffer": 0,
      "byteLength": 28908,
      "byteOffset": 2432844
    },
    {
      "buffer": 0,
      "byteLength": 19272,
      "byteOffset": 2461752
    },
    {
      "buffer": 0,
      "byteLength": 26112,
      "byteOffset": 2481024
    },
    {
      "buffer": 0,
      "byteLength": 47184,
      "byteOffset": 2507136
    },
    {
      "buffer": 0,
      "byteLength": 47184,
      "byteOffset": 2554320
    },
    {
      "buffer": 0,
      "byteLength": 31456,
      "byteOffset": 2601504
    },
    {
      "buffer": 0,
      "byteLength": 31200,
      "byteOffset": 2632960
    },
    {
      "buffer": 0,
      "byteLength": 44004,
      "byteOffset": 2664160
    },
    {
      "buffer": 0,
      "byteLength": 44004,
      "byteOffset": 2708164
    },
    {
      "buffer": 0,
      "byteLength": 29336,
      "byteOffset": 2752168
    },
    {
      "buffer": 0,
      "byteLength": 29184,
      "byteOffset": 2781504
    },
    {
      "buffer": 0,
      "byteLength": 20160,
      "byteOffset": 2810688
    },
    {
      "buffer": 0,
      "byteLength": 20160,
      "byteOffset": 2830848
    },
    {
      "buffer": 0,
      "byteLength": 13440,
      "byteOffset": 2851008
    },
    {
      "buffer": 0,
      "byteLength": 11328,
      "byteOffset": 2864448
    },
    {
      "buffer": 0,
      "byteLength": 141168,
      "byteOffset": 2875776
    },
    {
      "buffer": 0,
      "byteLength": 141168,
      "byteOffset": 3016944
    },
    {
      "buffer": 0,
      "byteLength": 94112,
      "byteOffset": 3158112
    },
    {
      "buffer": 0,
      "byteLength": 122736,
      "byteOffset": 3252224
    },
    {
      "buffer": 0,
      "byteLength": 40524,
      "byteOffset": 3374960
    },
    {
      "buffer": 0,
      "byteLength": 40524,
      "byteOffset": 3415484
    },
    {
      "buffer": 0,
      "byteLength": 27016,
      "byteOffset": 3456008
    },
    {
      "buffer": 0,
      "byteLength": 34428,
      "byteOffset": 3483024
    }
  ],
  "samplers": [
    {
      "magFilter": 9729,
      "minFilter": 9987
    }
  ],
  "buffers": [
    {
      "uri": "Busto_data.bin",
      "byteLength": 3517452
    }
  ]
}